<svg width="552" height="479" viewBox="0 0 552 479" fill="none" xmlns="http://www.w3.org/2000/svg">
<g filter="url(#filter0_f_3134_6201)">
<ellipse cx="268.886" cy="209.284" rx="128.5" ry="89.5" fill="white" fill-opacity="0.2"/>
</g>
<g filter="url(#filter1_d_3134_6201)">
<g filter="url(#filter2_d_3134_6201)">
<path d="M133.229 156.212C132.211 151.864 134.911 147.514 139.259 146.497L233.73 124.388C238.078 123.371 242.428 126.07 243.445 130.418L276.056 269.764C277.073 274.112 274.373 278.461 270.026 279.479L175.554 301.588C171.206 302.605 166.857 299.905 165.839 295.557L133.229 156.212Z" fill="white"/>
</g>
<g filter="url(#filter3_d_3134_6201)">
<path fill-rule="evenodd" clip-rule="evenodd" d="M233.822 124.782L139.351 146.891C135.22 147.857 132.656 151.989 133.622 156.12L166.233 295.465C167.199 299.596 171.332 302.161 175.462 301.194L269.933 279.085C274.064 278.118 276.629 273.986 275.662 269.856L243.052 130.51C242.085 126.38 237.953 123.815 233.822 124.782ZM139.259 146.497C134.911 147.514 132.211 151.864 133.229 156.212L165.839 295.557C166.857 299.905 171.206 302.605 175.554 301.588L270.026 279.479C274.373 278.461 277.073 274.112 276.056 269.764L243.445 130.418C242.428 126.07 238.078 123.371 233.73 124.388L139.259 146.497Z" fill="white"/>
</g>
<path d="M154.982 171.183L153.611 159.503L166.158 156.566L167.025 160.272L158.122 162.356L158.695 167.298C159.619 166.487 160.676 165.942 161.865 165.664C163.997 165.165 165.822 165.435 167.341 166.475C168.861 167.514 169.898 169.223 170.455 171.601C170.793 173.046 170.789 174.415 170.443 175.707C170.104 176.986 169.44 178.077 168.451 178.979C167.46 179.87 166.19 180.497 164.642 180.859C163.289 181.176 161.97 181.198 160.684 180.926C159.396 180.644 158.298 180.084 157.389 179.248C156.49 178.41 155.871 177.36 155.532 176.099L159.93 175.069C160.241 175.981 160.734 176.633 161.41 177.026C162.093 177.407 162.886 177.492 163.788 177.28C164.793 177.045 165.483 176.505 165.858 175.661C166.231 174.806 166.263 173.717 165.954 172.395C165.656 171.124 165.116 170.223 164.332 169.693C163.548 169.163 162.582 169.032 161.434 169.3C160.379 169.548 159.587 170.025 159.061 170.732L158.724 171.232L154.982 171.183Z" fill="#E00000"/>
<path fill-rule="evenodd" clip-rule="evenodd" d="M160.479 210.077L174.283 220.005L183.775 205.897L169.971 195.969L160.479 210.077Z" fill="#E00000"/>
</g>
<g filter="url(#filter4_d_3134_6201)">
<g filter="url(#filter5_d_3134_6201)">
<path d="M182.68 128.162C182.589 123.697 186.134 120.004 190.599 119.913L287.602 117.929C292.067 117.838 295.76 121.383 295.851 125.847L298.778 268.928C298.869 273.392 295.324 277.085 290.859 277.176L193.856 279.16C189.391 279.252 185.698 275.707 185.607 271.242L182.68 128.162Z" fill="white"/>
</g>
<g filter="url(#filter6_d_3134_6201)">
<path fill-rule="evenodd" clip-rule="evenodd" d="M287.611 118.333L190.607 120.317C186.366 120.404 182.998 123.912 183.085 128.153L186.011 271.234C186.098 275.475 189.606 278.843 193.848 278.756L290.851 276.772C295.092 276.686 298.46 273.177 298.374 268.936L295.447 125.855C295.36 121.614 291.852 118.246 287.611 118.333ZM190.599 119.913C186.134 120.004 182.589 123.697 182.68 128.162L185.607 271.242C185.698 275.707 189.391 279.252 193.856 279.16L290.859 277.176C295.324 277.085 298.869 273.392 298.778 268.928L295.851 125.847C295.76 121.383 292.067 117.838 287.602 117.929L190.599 119.913Z" fill="white"/>
</g>
<path d="M217.635 147.317C217.679 149.464 217.37 151.34 216.708 152.943C216.046 154.536 215.108 155.825 213.897 156.808L217.779 159.729L214.818 162.459L209.843 158.628C209.287 158.734 208.709 158.793 208.109 158.805C206.204 158.844 204.495 158.421 202.981 157.536C201.468 156.651 200.284 155.37 199.428 153.692C198.572 152.003 198.116 150.054 198.06 147.844L198.037 146.707C197.991 144.444 198.355 142.447 199.131 140.714C199.917 138.971 201.042 137.627 202.507 136.681C203.983 135.724 205.679 135.226 207.594 135.187C209.51 135.148 211.219 135.576 212.722 136.472C214.236 137.357 215.415 138.654 216.261 140.364C217.117 142.063 217.568 144.039 217.614 146.291L217.635 147.317ZM212.814 146.373C212.765 143.963 212.296 142.14 211.407 140.906C210.519 139.671 209.274 139.07 207.675 139.102C206.085 139.135 204.872 139.781 204.034 141.041C203.196 142.29 202.796 144.109 202.835 146.499L202.858 147.62C202.906 149.967 203.374 151.779 204.264 153.056C205.153 154.333 206.409 154.955 208.03 154.922C209.619 154.889 210.827 154.243 211.654 152.984C212.481 151.714 212.876 149.884 212.837 147.494L212.814 146.373Z" fill="#181818"/>
<path fill-rule="evenodd" clip-rule="evenodd" d="M214.83 182.612C214.143 182.626 213.492 182.79 212.901 183.072C213.443 182.176 213.75 181.097 213.726 179.941C213.664 176.908 211.355 174.495 208.568 174.552C205.781 174.609 203.572 177.114 203.634 180.148C203.657 181.248 203.976 182.266 204.506 183.115C203.993 182.938 203.446 182.845 202.878 182.857C200.091 182.914 197.882 185.419 197.944 188.453C198.006 191.486 200.316 193.899 203.103 193.842C203.732 193.829 204.332 193.69 204.883 193.45C204.882 193.451 207.217 192.713 208.698 189.623L208.736 191.464C208.736 191.464 208.063 197.285 202.496 198.035L201.605 198.053L201.624 198.958L216.821 198.647L216.803 197.742L215.912 197.76C210.319 197.239 209.408 191.45 209.408 191.45L209.373 189.733C209.675 190.416 211.334 193.754 214.905 193.597C214.955 193.597 215.005 193.599 215.055 193.598C217.842 193.541 220.051 191.035 219.989 188.002C219.927 184.968 217.617 182.555 214.83 182.612Z" fill="#181818"/>
</g>
<g filter="url(#filter7_d_3134_6201)">
<g filter="url(#filter8_d_3134_6201)">
<path d="M230.491 120.815C230.891 116.368 234.82 113.086 239.268 113.486L335.902 122.174C340.349 122.573 343.631 126.503 343.231 130.95L330.417 273.486C330.017 277.933 326.088 281.215 321.64 280.815L225.006 272.127C220.558 271.728 217.277 267.798 217.677 263.351L230.491 120.815Z" fill="white"/>
</g>
<g filter="url(#filter9_d_3134_6201)">
<path fill-rule="evenodd" clip-rule="evenodd" d="M335.866 122.576L239.231 113.889C235.006 113.509 231.273 116.626 230.894 120.851L218.08 263.387C217.7 267.612 220.817 271.345 225.042 271.725L321.676 280.412C325.901 280.792 329.634 277.675 330.014 273.45L342.828 130.914C343.208 126.689 340.091 122.956 335.866 122.576ZM239.268 113.486C234.82 113.086 230.891 116.368 230.491 120.815L217.677 263.351C217.277 267.798 220.558 271.728 225.006 272.127L321.64 280.815C326.088 281.215 330.017 277.933 330.417 273.486L343.231 130.95C343.631 126.503 340.349 122.573 335.902 122.174L239.268 113.486Z" fill="white"/>
</g>
<path d="M260.448 154.474L244.751 153.063L245.031 149.949L253.149 142.719C254.266 141.699 255.103 140.797 255.659 140.012C256.227 139.228 256.544 138.463 256.611 137.719C256.702 136.702 256.517 135.882 256.055 135.259C255.594 134.626 254.886 134.266 253.932 134.18C252.905 134.088 252.06 134.371 251.398 135.031C250.748 135.68 250.371 136.582 250.267 137.735L245.706 137.325C245.831 135.931 246.276 134.686 247.04 133.592C247.815 132.499 248.84 131.682 250.115 131.142C251.39 130.59 252.799 130.384 254.34 130.523C256.7 130.735 258.478 131.465 259.677 132.715C260.886 133.965 261.397 135.623 261.212 137.689C261.11 138.821 260.712 139.948 260.02 141.07C259.327 142.191 258.197 143.469 256.631 144.903L250.931 149.924L260.777 150.809L260.448 154.474Z" fill="#E00000"/>
<path fill-rule="evenodd" clip-rule="evenodd" d="M256.064 168.279C252.359 168.003 251.245 172.149 251.245 172.149C251.245 172.149 250.77 167.86 247.076 167.471C243.382 167.082 240.814 170.121 241.759 173.648C242.704 177.175 243.882 178.056 245.626 180.708C247.369 183.361 249.844 187.901 249.738 188.909C249.815 187.898 252.942 183.862 255.13 181.563C257.318 179.264 258.635 178.608 260.194 175.305C261.753 172.003 259.768 168.555 256.064 168.279Z" fill="#E00000"/>
</g>
<g filter="url(#filter10_d_3134_6201)">
<g filter="url(#filter11_d_3134_6201)">
<path d="M274.598 128.585C275.437 124.2 279.673 121.324 284.059 122.163L379.355 140.391C383.741 141.229 386.616 145.465 385.777 149.851L358.892 290.413C358.053 294.799 353.817 297.674 349.431 296.835L254.135 278.608C249.749 277.769 246.874 273.533 247.713 269.148L274.598 128.585Z" fill="white"/>
</g>
<g filter="url(#filter12_d_3134_6201)">
<path fill-rule="evenodd" clip-rule="evenodd" d="M379.279 140.788L283.983 122.56C279.816 121.763 275.792 124.495 274.995 128.661L248.11 269.224C247.313 273.39 250.044 277.414 254.211 278.211L349.507 296.438C353.674 297.235 357.698 294.504 358.495 290.337L385.38 149.775C386.177 145.608 383.446 141.585 379.279 140.788ZM284.059 122.163C279.673 121.324 275.437 124.2 274.598 128.585L247.713 269.148C246.874 273.533 249.749 277.769 254.135 278.608L349.431 296.835C353.817 297.674 358.053 294.799 358.892 290.413L385.777 149.851C386.616 145.465 383.741 141.229 379.355 140.391L284.059 122.163Z" fill="white"/>
</g>
<path d="M301.07 165.049L285.59 162.089L286.178 159.018L294.973 152.629C296.185 151.724 297.108 150.909 297.739 150.183C298.382 149.46 298.773 148.73 298.913 147.996C299.105 146.993 299.002 146.159 298.604 145.493C298.208 144.817 297.54 144.389 296.599 144.209C295.586 144.016 294.717 144.214 293.993 144.804C293.282 145.386 292.817 146.246 292.599 147.383L288.101 146.523C288.364 145.148 288.931 143.954 289.8 142.941C290.679 141.93 291.78 141.219 293.102 140.807C294.426 140.385 295.848 140.32 297.368 140.61C299.694 141.055 301.392 141.959 302.461 143.321C303.54 144.685 303.884 146.385 303.495 148.422C303.281 149.539 302.774 150.621 301.973 151.669C301.173 152.716 299.922 153.875 298.221 155.147L292.052 159.578L301.761 161.435L301.07 165.049Z" fill="#181818"/>
<path fill-rule="evenodd" clip-rule="evenodd" d="M292.383 195.366C296.458 196.201 299.547 193.675 298.769 190.246C297.992 186.818 296.75 185.842 295.019 183.133C293.287 180.423 290.889 175.851 291.083 174.918C290.92 175.857 287.134 179.247 284.524 181.125C281.915 183.005 280.402 183.453 278.413 186.353C276.426 189.253 278.365 192.74 282.459 193.468C285.27 193.968 286.886 192.36 287.622 191.301L287.333 192.815C287.333 192.815 285.393 198.105 278.96 197.494L277.953 197.301L277.79 198.152L294.995 201.443L295.158 200.592L294.149 200.399C287.947 198.593 288.095 192.961 288.095 192.961L288.346 191.646C288.731 192.92 289.741 194.826 292.383 195.366Z" fill="#181818"/>
</g>
<g filter="url(#filter13_d_3134_6201)">
<g filter="url(#filter14_d_3134_6201)">
<path d="M313.52 145.555C315.252 141.439 319.993 139.507 324.109 141.24L413.533 178.882C417.649 180.615 419.581 185.356 417.848 189.471L362.325 321.372C360.593 325.488 355.852 327.42 351.737 325.687L262.312 288.045C258.197 286.312 256.265 281.571 257.997 277.456L313.52 145.555Z" fill="white"/>
</g>
<g filter="url(#filter15_d_3134_6201)">
<path fill-rule="evenodd" clip-rule="evenodd" d="M413.376 179.255L323.952 141.613C320.042 139.967 315.538 141.802 313.892 145.712L258.37 277.613C256.724 281.522 258.559 286.026 262.469 287.672L351.893 325.315C355.803 326.96 360.307 325.125 361.953 321.215L417.475 189.314C419.121 185.405 417.286 180.901 413.376 179.255ZM324.109 141.24C319.993 139.507 315.252 141.439 313.52 145.555L257.997 277.456C256.265 281.571 258.197 286.312 262.312 288.045L351.737 325.687C355.852 327.42 360.593 325.488 362.325 321.372L417.848 189.471C419.581 185.356 417.649 180.615 413.533 178.882L324.109 141.24Z" fill="white"/>
</g>
<path d="M331.832 186.726L317.306 180.612L318.519 177.73L328.45 173.309C329.824 172.677 330.896 172.071 331.665 171.492C332.444 170.918 332.978 170.286 333.268 169.597C333.664 168.656 333.737 167.819 333.486 167.085C333.239 166.341 332.675 165.784 331.792 165.412C330.841 165.012 329.95 165.025 329.119 165.452C328.302 165.873 327.669 166.618 327.22 167.685L322.999 165.908C323.542 164.618 324.344 163.568 325.404 162.758C326.475 161.952 327.699 161.485 329.078 161.357C330.461 161.219 331.866 161.451 333.292 162.051C335.475 162.97 336.948 164.207 337.71 165.761C338.482 167.32 338.465 169.055 337.661 170.966C337.219 172.014 336.498 172.967 335.498 173.825C334.497 174.683 333.032 175.558 331.104 176.448L324.148 179.499L333.259 183.335L331.832 186.726Z" fill="#E00000"/>
<path fill-rule="evenodd" clip-rule="evenodd" d="M303.905 205.15L309.237 221.296L325.209 215.462L319.876 199.316L303.905 205.15Z" fill="#E00000"/>
</g>
<defs>
<filter id="filter0_f_3134_6201" x="40.3862" y="19.7842" width="457" height="379" filterUnits="userSpaceOnUse" color-interpolation-filters="sRGB">
<feFlood flood-opacity="0" result="BackgroundImageFix"/>
<feBlend mode="normal" in="SourceGraphic" in2="BackgroundImageFix" result="shape"/>
<feGaussianBlur stdDeviation="50" result="effect1_foregroundBlur_3134_6201"/>
</filter>
<filter id="filter1_d_3134_6201" x="129.014" y="124.174" width="151.256" height="185.628" filterUnits="userSpaceOnUse" color-interpolation-filters="sRGB">
<feFlood flood-opacity="0" result="BackgroundImageFix"/>
<feColorMatrix in="SourceAlpha" type="matrix" values="0 0 0 0 0 0 0 0 0 0 0 0 0 0 0 0 0 0 127 0" result="hardAlpha"/>
<feOffset dy="4"/>
<feGaussianBlur stdDeviation="2"/>
<feComposite in2="hardAlpha" operator="out"/>
<feColorMatrix type="matrix" values="0 0 0 0 0 0 0 0 0 0 0 0 0 0 0 0 0 0 0.25 0"/>
<feBlend mode="normal" in2="BackgroundImageFix" result="effect1_dropShadow_3134_6201"/>
<feBlend mode="normal" in="SourceGraphic" in2="effect1_dropShadow_3134_6201" result="shape"/>
</filter>
<filter id="filter2_d_3134_6201" x="0.000152588" y="10.7205" width="409.284" height="443.656" filterUnits="userSpaceOnUse" color-interpolation-filters="sRGB">
<feFlood flood-opacity="0" result="BackgroundImageFix"/>
<feColorMatrix in="SourceAlpha" type="matrix" values="0 0 0 0 0 0 0 0 0 0 0 0 0 0 0 0 0 0 127 0" result="hardAlpha"/>
<feOffset dy="19.5609"/>
<feGaussianBlur stdDeviation="66.507"/>
<feColorMatrix type="matrix" values="0 0 0 0 0 0 0 0 0 0 0 0 0 0 0 0 0 0 0.1 0"/>
<feBlend mode="normal" in2="BackgroundImageFix" result="effect1_dropShadow_3134_6201"/>
<feBlend mode="normal" in="SourceGraphic" in2="effect1_dropShadow_3134_6201" result="shape"/>
</filter>
<filter id="filter3_d_3134_6201" x="0.000152588" y="10.7205" width="409.284" height="443.656" filterUnits="userSpaceOnUse" color-interpolation-filters="sRGB">
<feFlood flood-opacity="0" result="BackgroundImageFix"/>
<feColorMatrix in="SourceAlpha" type="matrix" values="0 0 0 0 0 0 0 0 0 0 0 0 0 0 0 0 0 0 127 0" result="hardAlpha"/>
<feOffset dy="19.5609"/>
<feGaussianBlur stdDeviation="66.507"/>
<feColorMatrix type="matrix" values="0 0 0 0 0 0 0 0 0 0 0 0 0 0 0 0 0 0 0.1 0"/>
<feBlend mode="normal" in2="BackgroundImageFix" result="effect1_dropShadow_3134_6201"/>
<feBlend mode="normal" in="SourceGraphic" in2="effect1_dropShadow_3134_6201" result="shape"/>
</filter>
<filter id="filter4_d_3134_6201" x="178.679" y="117.927" width="124.101" height="169.235" filterUnits="userSpaceOnUse" color-interpolation-filters="sRGB">
<feFlood flood-opacity="0" result="BackgroundImageFix"/>
<feColorMatrix in="SourceAlpha" type="matrix" values="0 0 0 0 0 0 0 0 0 0 0 0 0 0 0 0 0 0 127 0" result="hardAlpha"/>
<feOffset dy="4"/>
<feGaussianBlur stdDeviation="2"/>
<feComposite in2="hardAlpha" operator="out"/>
<feColorMatrix type="matrix" values="0 0 0 0 0 0 0 0 0 0 0 0 0 0 0 0 0 0 0.25 0"/>
<feBlend mode="normal" in2="BackgroundImageFix" result="effect1_dropShadow_3134_6201"/>
<feBlend mode="normal" in="SourceGraphic" in2="effect1_dropShadow_3134_6201" result="shape"/>
</filter>
<filter id="filter5_d_3134_6201" x="49.6647" y="4.47388" width="382.129" height="427.263" filterUnits="userSpaceOnUse" color-interpolation-filters="sRGB">
<feFlood flood-opacity="0" result="BackgroundImageFix"/>
<feColorMatrix in="SourceAlpha" type="matrix" values="0 0 0 0 0 0 0 0 0 0 0 0 0 0 0 0 0 0 127 0" result="hardAlpha"/>
<feOffset dy="19.5609"/>
<feGaussianBlur stdDeviation="66.507"/>
<feColorMatrix type="matrix" values="0 0 0 0 0 0 0 0 0 0 0 0 0 0 0 0 0 0 0.1 0"/>
<feBlend mode="normal" in2="BackgroundImageFix" result="effect1_dropShadow_3134_6201"/>
<feBlend mode="normal" in="SourceGraphic" in2="effect1_dropShadow_3134_6201" result="shape"/>
</filter>
<filter id="filter6_d_3134_6201" x="49.6647" y="4.47388" width="382.129" height="427.263" filterUnits="userSpaceOnUse" color-interpolation-filters="sRGB">
<feFlood flood-opacity="0" result="BackgroundImageFix"/>
<feColorMatrix in="SourceAlpha" type="matrix" values="0 0 0 0 0 0 0 0 0 0 0 0 0 0 0 0 0 0 127 0" result="hardAlpha"/>
<feOffset dy="19.5609"/>
<feGaussianBlur stdDeviation="66.507"/>
<feColorMatrix type="matrix" values="0 0 0 0 0 0 0 0 0 0 0 0 0 0 0 0 0 0 0.1 0"/>
<feBlend mode="normal" in2="BackgroundImageFix" result="effect1_dropShadow_3134_6201"/>
<feBlend mode="normal" in="SourceGraphic" in2="effect1_dropShadow_3134_6201" result="shape"/>
</filter>
<filter id="filter7_d_3134_6201" x="213.644" y="113.453" width="133.62" height="175.395" filterUnits="userSpaceOnUse" color-interpolation-filters="sRGB">
<feFlood flood-opacity="0" result="BackgroundImageFix"/>
<feColorMatrix in="SourceAlpha" type="matrix" values="0 0 0 0 0 0 0 0 0 0 0 0 0 0 0 0 0 0 127 0" result="hardAlpha"/>
<feOffset dy="4"/>
<feGaussianBlur stdDeviation="2"/>
<feComposite in2="hardAlpha" operator="out"/>
<feColorMatrix type="matrix" values="0 0 0 0 0 0 0 0 0 0 0 0 0 0 0 0 0 0 0.25 0"/>
<feBlend mode="normal" in2="BackgroundImageFix" result="effect1_dropShadow_3134_6201"/>
<feBlend mode="normal" in="SourceGraphic" in2="effect1_dropShadow_3134_6201" result="shape"/>
</filter>
<filter id="filter8_d_3134_6201" x="84.63" y="0" width="391.648" height="433.423" filterUnits="userSpaceOnUse" color-interpolation-filters="sRGB">
<feFlood flood-opacity="0" result="BackgroundImageFix"/>
<feColorMatrix in="SourceAlpha" type="matrix" values="0 0 0 0 0 0 0 0 0 0 0 0 0 0 0 0 0 0 127 0" result="hardAlpha"/>
<feOffset dy="19.5609"/>
<feGaussianBlur stdDeviation="66.507"/>
<feColorMatrix type="matrix" values="0 0 0 0 0 0 0 0 0 0 0 0 0 0 0 0 0 0 0.1 0"/>
<feBlend mode="normal" in2="BackgroundImageFix" result="effect1_dropShadow_3134_6201"/>
<feBlend mode="normal" in="SourceGraphic" in2="effect1_dropShadow_3134_6201" result="shape"/>
</filter>
<filter id="filter9_d_3134_6201" x="84.63" y="0" width="391.648" height="433.423" filterUnits="userSpaceOnUse" color-interpolation-filters="sRGB">
<feFlood flood-opacity="0" result="BackgroundImageFix"/>
<feColorMatrix in="SourceAlpha" type="matrix" values="0 0 0 0 0 0 0 0 0 0 0 0 0 0 0 0 0 0 127 0" result="hardAlpha"/>
<feOffset dy="19.5609"/>
<feGaussianBlur stdDeviation="66.507"/>
<feColorMatrix type="matrix" values="0 0 0 0 0 0 0 0 0 0 0 0 0 0 0 0 0 0 0.1 0"/>
<feBlend mode="normal" in2="BackgroundImageFix" result="effect1_dropShadow_3134_6201"/>
<feBlend mode="normal" in="SourceGraphic" in2="effect1_dropShadow_3134_6201" result="shape"/>
</filter>
<filter id="filter10_d_3134_6201" x="243.567" y="122.018" width="146.356" height="182.963" filterUnits="userSpaceOnUse" color-interpolation-filters="sRGB">
<feFlood flood-opacity="0" result="BackgroundImageFix"/>
<feColorMatrix in="SourceAlpha" type="matrix" values="0 0 0 0 0 0 0 0 0 0 0 0 0 0 0 0 0 0 127 0" result="hardAlpha"/>
<feOffset dy="4"/>
<feGaussianBlur stdDeviation="2"/>
<feComposite in2="hardAlpha" operator="out"/>
<feColorMatrix type="matrix" values="0 0 0 0 0 0 0 0 0 0 0 0 0 0 0 0 0 0 0.25 0"/>
<feBlend mode="normal" in2="BackgroundImageFix" result="effect1_dropShadow_3134_6201"/>
<feBlend mode="normal" in="SourceGraphic" in2="effect1_dropShadow_3134_6201" result="shape"/>
</filter>
<filter id="filter11_d_3134_6201" x="114.553" y="8.56445" width="404.384" height="440.991" filterUnits="userSpaceOnUse" color-interpolation-filters="sRGB">
<feFlood flood-opacity="0" result="BackgroundImageFix"/>
<feColorMatrix in="SourceAlpha" type="matrix" values="0 0 0 0 0 0 0 0 0 0 0 0 0 0 0 0 0 0 127 0" result="hardAlpha"/>
<feOffset dy="19.5609"/>
<feGaussianBlur stdDeviation="66.507"/>
<feColorMatrix type="matrix" values="0 0 0 0 0 0 0 0 0 0 0 0 0 0 0 0 0 0 0.1 0"/>
<feBlend mode="normal" in2="BackgroundImageFix" result="effect1_dropShadow_3134_6201"/>
<feBlend mode="normal" in="SourceGraphic" in2="effect1_dropShadow_3134_6201" result="shape"/>
</filter>
<filter id="filter12_d_3134_6201" x="114.553" y="8.56445" width="404.384" height="440.991" filterUnits="userSpaceOnUse" color-interpolation-filters="sRGB">
<feFlood flood-opacity="0" result="BackgroundImageFix"/>
<feColorMatrix in="SourceAlpha" type="matrix" values="0 0 0 0 0 0 0 0 0 0 0 0 0 0 0 0 0 0 127 0" result="hardAlpha"/>
<feOffset dy="19.5609"/>
<feGaussianBlur stdDeviation="66.507"/>
<feColorMatrix type="matrix" values="0 0 0 0 0 0 0 0 0 0 0 0 0 0 0 0 0 0 0.1 0"/>
<feBlend mode="normal" in2="BackgroundImageFix" result="effect1_dropShadow_3134_6201"/>
<feBlend mode="normal" in="SourceGraphic" in2="effect1_dropShadow_3134_6201" result="shape"/>
</filter>
<filter id="filter13_d_3134_6201" x="253.362" y="140.604" width="169.122" height="193.718" filterUnits="userSpaceOnUse" color-interpolation-filters="sRGB">
<feFlood flood-opacity="0" result="BackgroundImageFix"/>
<feColorMatrix in="SourceAlpha" type="matrix" values="0 0 0 0 0 0 0 0 0 0 0 0 0 0 0 0 0 0 127 0" result="hardAlpha"/>
<feOffset dy="4"/>
<feGaussianBlur stdDeviation="2"/>
<feComposite in2="hardAlpha" operator="out"/>
<feColorMatrix type="matrix" values="0 0 0 0 0 0 0 0 0 0 0 0 0 0 0 0 0 0 0.25 0"/>
<feBlend mode="normal" in2="BackgroundImageFix" result="effect1_dropShadow_3134_6201"/>
<feBlend mode="normal" in="SourceGraphic" in2="effect1_dropShadow_3134_6201" result="shape"/>
</filter>
<filter id="filter14_d_3134_6201" x="124.348" y="27.1514" width="427.15" height="451.746" filterUnits="userSpaceOnUse" color-interpolation-filters="sRGB">
<feFlood flood-opacity="0" result="BackgroundImageFix"/>
<feColorMatrix in="SourceAlpha" type="matrix" values="0 0 0 0 0 0 0 0 0 0 0 0 0 0 0 0 0 0 127 0" result="hardAlpha"/>
<feOffset dy="19.5609"/>
<feGaussianBlur stdDeviation="66.507"/>
<feColorMatrix type="matrix" values="0 0 0 0 0 0 0 0 0 0 0 0 0 0 0 0 0 0 0.1 0"/>
<feBlend mode="normal" in2="BackgroundImageFix" result="effect1_dropShadow_3134_6201"/>
<feBlend mode="normal" in="SourceGraphic" in2="effect1_dropShadow_3134_6201" result="shape"/>
</filter>
<filter id="filter15_d_3134_6201" x="124.348" y="27.1514" width="427.15" height="451.746" filterUnits="userSpaceOnUse" color-interpolation-filters="sRGB">
<feFlood flood-opacity="0" result="BackgroundImageFix"/>
<feColorMatrix in="SourceAlpha" type="matrix" values="0 0 0 0 0 0 0 0 0 0 0 0 0 0 0 0 0 0 127 0" result="hardAlpha"/>
<feOffset dy="19.5609"/>
<feGaussianBlur stdDeviation="66.507"/>
<feColorMatrix type="matrix" values="0 0 0 0 0 0 0 0 0 0 0 0 0 0 0 0 0 0 0.1 0"/>
<feBlend mode="normal" in2="BackgroundImageFix" result="effect1_dropShadow_3134_6201"/>
<feBlend mode="normal" in="SourceGraphic" in2="effect1_dropShadow_3134_6201" result="shape"/>
</filter>
</defs>
</svg>
