<svg width="335" height="80" viewBox="0 0 335 80" fill="none" xmlns="http://www.w3.org/2000/svg">
<g filter="url(#filter0_d_2515_3142)">
<path d="M67.5282 40.4572C67.5282 39.0111 67.2139 37.6201 66.5938 36.323C65.3802 33.7839 65.1976 30.9642 66.0796 28.3833C66.2603 27.8545 66.5447 27.3311 66.1824 26.8244C66 26.5694 65.7038 26.4171 65.3901 26.4171H60.5384L60.9282 24.5216C60.9883 24.2296 61.1571 23.9767 61.4036 23.8093L65.4274 21.0781C65.6951 20.8964 65.7649 20.5321 65.5832 20.2644C65.4015 19.9967 65.0372 19.927 64.7695 20.1086L60.7456 22.8398C60.2451 23.1796 59.9024 23.693 59.7806 24.2856L59.3423 26.4171H53.3474L56.2918 23.478C56.4675 23.3034 56.5653 23.061 56.5601 22.8129C56.5549 22.5657 56.4475 22.3285 56.2656 22.1623C53.011 19.1849 48.0144 19.2952 44.8903 22.4134C44.8901 22.4137 44.8899 22.4139 44.8897 22.4141C44.8896 22.4141 44.8896 22.4141 44.8895 22.4142C44.8895 22.4143 44.8894 22.4144 44.8893 22.4145C41.7655 25.5334 41.6555 30.5211 44.6406 33.7715C44.8071 33.9516 45.0438 34.0579 45.2898 34.063C45.2961 34.0631 45.3024 34.0631 45.3087 34.0631C45.5489 34.0631 45.7829 33.967 45.954 33.7969L49.7814 29.9766C50.1939 32.1181 49.9142 34.3626 48.9586 36.4228C48.7325 36.9101 48.5467 37.4194 48.4061 37.9366C48.3212 38.2488 48.5056 38.5707 48.8178 38.6556C49.1301 38.7402 49.4519 38.556 49.5367 38.2438C49.66 37.7902 49.8231 37.3434 50.0214 36.9158C51.2434 34.2817 51.4682 31.3716 50.6682 28.6741C50.5896 28.409 50.4045 27.8609 50.3112 27.5886C50.5386 27.5337 58.8566 27.6463 59.1013 27.5886L58.1913 32.0148C57.5812 32.304 57.0399 32.5783 56.3049 32.752C55.3852 32.9693 54.4268 32.9657 53.3754 32.7413C53.1091 32.6844 52.8293 32.7417 52.6074 32.8987C52.3856 33.0554 52.2382 33.2998 52.2031 33.5692C52.0306 34.8877 51.6541 36.1798 51.0839 37.4095C50.6395 38.369 50.4141 39.3946 50.4141 40.4576C50.4141 44.4907 53.7272 47.7719 57.7995 47.7719C61.8718 47.7719 65.1848 44.4907 65.1848 40.4576C65.1848 39.3635 64.9474 38.3125 64.4792 37.3334C64.3358 37.0338 64.2023 36.7261 64.0822 36.4187C63.9645 36.1173 63.6246 35.9682 63.3234 36.0862C63.0221 36.2039 62.8731 36.5436 62.9909 36.845C63.1214 37.1791 63.2666 37.5136 63.4222 37.839C63.8144 38.6589 64.0132 39.5399 64.0132 40.4576C64.0132 43.8446 61.2258 46.6002 57.7996 46.6002C54.3733 46.6002 51.5859 43.8447 51.5859 40.4576C51.5859 39.5658 51.7747 38.706 52.147 37.9022C52.7373 36.6291 53.1369 35.2933 53.3362 33.9286C54.47 34.1444 55.5583 34.1323 56.5741 33.8924C57.08 33.7731 57.5057 33.6141 57.8977 33.4432L56.2524 41.4445C56.1873 41.7615 56.3913 42.0711 56.7082 42.1363C56.748 42.1444 56.7877 42.1484 56.8268 42.1484C57.0991 42.1484 57.3431 41.9576 57.4 41.6805L59.2187 32.8355C59.6961 32.6328 60.2121 32.4619 60.8821 32.3719C61.2567 32.3217 61.6411 32.3025 62.0269 32.3143C62.0534 32.912 62.1191 33.5133 62.2224 34.1042C62.2781 34.423 62.5815 34.6365 62.9004 34.5804C63.2191 34.5247 63.4323 34.2211 63.3766 33.9024C63.2723 33.3061 63.2099 32.6984 63.1912 32.0964C63.1754 31.5862 62.778 31.1802 62.2668 31.152C61.749 31.1234 61.2307 31.1431 60.7263 31.2106C60.2605 31.2733 59.8589 31.3688 59.4968 31.4829L60.2975 27.5887H65.1129L64.9709 28.0043C63.9893 30.8771 64.1901 34.0108 65.5368 36.8282C66.0808 37.9663 66.3566 39.1873 66.3566 40.4572C66.3566 45.1364 62.518 48.9434 57.7998 48.9434C55.5701 48.9434 53.4592 48.0976 51.8558 46.5618C50.2578 45.031 49.332 42.9779 49.249 40.7808C49.2369 40.4575 48.9671 40.2072 48.6415 40.2174C48.3182 40.2297 48.066 40.5017 48.0782 40.825C48.1727 43.3277 49.2265 45.6656 51.0453 47.4079C52.4395 48.7433 54.1712 49.6191 56.0421 49.9573V56.3412C56.0421 56.4453 55.9843 56.5389 55.8915 56.5856L52.4824 58.2991C52.1086 58.4866 51.9148 58.9018 52.0111 59.3087C52.1074 59.7157 52.4667 60 52.8848 60H62.7143C63.1328 60 63.4924 59.7156 63.5887 59.3085C63.685 58.9017 63.4912 58.4866 63.1179 58.2994L59.7083 56.5859C59.615 56.5389 59.557 56.4451 59.557 56.3412V49.9569C64.0854 49.1333 67.5282 45.1871 67.5282 40.4572ZM45.3222 23.6737L48.9882 27.3321L49.0259 27.4439L43.7811 26.8556C44.0083 25.7114 44.5227 24.6135 45.3222 23.6737ZM45.3213 32.773C44.1541 31.4011 43.6001 29.7024 43.6491 28.0197L49.4335 28.6686L45.3213 32.773ZM49.7299 26.4171L46.1516 22.8462C47.0937 22.048 48.1943 21.5347 49.3412 21.3082L49.9164 26.4172H49.7299V26.4171ZM51.6889 26.4171H51.0955L50.5055 21.1767C52.1911 21.1277 53.893 21.6802 55.2678 22.8446L51.6889 26.4171ZM61.561 58.8283H54.0385L56.4176 57.6325C56.9086 57.3857 57.2136 56.8909 57.2136 56.3413V50.0972C57.4081 50.1086 57.6034 50.115 57.7996 50.115C57.9963 50.115 58.1914 50.1086 58.3853 50.0971V56.3413C58.3853 56.8903 58.6901 57.3848 59.1814 57.6325L61.561 58.8283Z" fill="white"/>
</g>
<g filter="url(#filter1_d_2515_3142)">
<path d="M124.596 26.6674C124.804 26.6674 125.006 26.5561 125.111 26.36L125.62 25.4198C125.773 25.1352 125.667 24.7798 125.383 24.626C125.098 24.4721 124.743 24.5783 124.589 24.8628L124.081 25.803C123.927 26.0876 124.033 26.4431 124.318 26.5968C124.406 26.6447 124.501 26.6674 124.596 26.6674Z" fill="white"/>
<path d="M130.579 26.1458V25.0771C130.579 24.7535 130.317 24.4913 129.993 24.4913C129.669 24.4913 129.407 24.7535 129.407 25.0771V26.1458C129.407 26.4693 129.669 26.7316 129.993 26.7316C130.317 26.7316 130.579 26.4693 130.579 26.1458Z" fill="white"/>
<path d="M135.404 26.6595C135.504 26.6595 135.605 26.634 135.698 26.5804C135.978 26.4181 136.073 26.0596 135.911 25.7798L135.374 24.8552C135.212 24.5754 134.854 24.4802 134.574 24.6424C134.294 24.8048 134.199 25.1632 134.361 25.4431L134.897 26.3676C135.006 26.5549 135.202 26.6595 135.404 26.6595Z" fill="white"/>
<path d="M150 38.0942V37.5781C150 36.484 149.449 35.5166 148.61 34.9375C148.808 34.778 148.986 34.5902 149.138 34.3748C149.658 33.6399 149.788 32.6934 149.487 31.843C148.761 29.7891 147.251 26.8314 144.183 24.4044C140.646 21.6061 135.877 20.1441 130.008 20.0591C130.003 20.0591 129.997 20.0591 129.991 20.0591C127.339 20.0975 124.882 20.422 122.688 21.0237C122.376 21.1092 122.193 21.4316 122.278 21.7435C122.364 22.0555 122.686 22.2392 122.998 22.1535C125.094 21.5787 127.45 21.2682 130 21.2307C142.673 21.4174 146.957 28.2041 148.383 32.2337C148.559 32.7334 148.486 33.2673 148.181 33.6984C147.879 34.1259 147.405 34.371 146.881 34.371H113.119C112.593 34.371 112.116 34.1245 111.812 33.6945C111.511 33.2697 111.437 32.7459 111.609 32.2574C112.648 29.3046 115.034 25.3034 120.501 23.0105C120.8 22.8854 120.94 22.5422 120.815 22.2438C120.69 21.9454 120.347 21.8052 120.048 21.9302C117.386 23.0466 115.159 24.6595 113.428 26.7242C112.154 28.2434 111.17 29.9741 110.504 31.8685C110.204 32.7202 110.332 33.6326 110.856 34.3716C111.008 34.5869 111.189 34.7758 111.391 34.9366C110.552 35.5155 110 36.4834 110 37.5781V38.0942C110 39.641 111.101 40.9355 112.56 41.2357L112.548 44.7338C111.095 45.0386 110 46.3298 110 47.8723V48.3884C110 49.9343 111.1 51.2281 112.558 51.5293C112.518 52.1458 112.538 53.1462 112.894 54.2594C113.852 57.2594 116.447 58.6881 118.454 59.3584C119.612 59.7448 120.849 59.9409 122.13 59.9409H137.87C139.151 59.9409 140.388 59.7448 141.546 59.3584C143.554 58.688 146.148 57.2594 147.106 54.2594C147.462 53.1463 147.482 52.1458 147.442 51.5293C148.9 51.2282 150 49.9343 150 48.3884V47.8723C150 46.3256 148.899 45.0323 147.44 44.7321V41.2357C148.899 40.9355 150 39.641 150 38.0942ZM111.172 48.3884V47.8723C111.172 46.9821 111.747 46.2253 112.544 45.9495L112.543 46.2948C112.543 47.1262 113.009 47.8631 113.76 48.2179C114.515 48.5747 115.386 48.4661 116.033 47.9345C116.335 47.6859 116.704 47.4558 117.344 47.4558C117.412 47.4558 117.475 47.4585 117.537 47.4623V50.424H113.207C112.085 50.424 111.172 49.5108 111.172 48.3884ZM134.515 43.8062H146.269V46.295C146.269 46.6745 146.064 46.9974 145.723 47.1589C145.376 47.3225 144.992 47.2742 144.694 47.0297C144.272 46.6826 143.657 46.2841 142.638 46.2841C141.38 46.2841 140.736 46.7949 140.167 47.2456C139.667 47.6413 139.273 47.9538 138.423 47.9538C137.572 47.9538 137.178 47.6413 136.678 47.2456C136.109 46.795 135.465 46.2841 134.207 46.2841C132.949 46.2841 132.276 46.8173 131.735 47.2456C131.236 47.6413 130.841 47.9538 129.991 47.9538C129.141 47.9538 128.747 47.6413 128.247 47.2456C127.707 46.8173 127.034 46.2841 125.776 46.2841C124.518 46.2841 123.873 46.7949 123.304 47.2456C122.948 47.5277 122.644 47.7665 122.191 47.8807V44.5823C122.191 44.1544 122.539 43.8062 122.967 43.8062H131.768C132.091 43.8062 132.354 43.544 132.354 43.2205C132.354 42.897 132.091 42.6347 131.768 42.6347H122.967C121.893 42.6347 121.02 43.5084 121.02 44.5823V51.7965C121.02 52.4336 120.501 52.952 119.864 52.952C119.227 52.952 118.709 52.4336 118.709 51.7965V44.5823C118.709 43.5084 117.835 42.6347 116.761 42.6347H113.731V41.3014H146.269V42.6347H134.515C134.191 42.6347 133.929 42.897 133.929 43.2205C133.929 43.544 134.191 43.8062 134.515 43.8062ZM116.761 43.8062C117.189 43.8062 117.537 44.1544 117.537 44.5823V46.2891C117.475 46.2862 117.411 46.2841 117.344 46.2841C116.326 46.2841 115.711 46.6823 115.289 47.0293C114.991 47.2738 114.607 47.3222 114.26 47.1585C113.919 46.997 113.715 46.6741 113.715 46.2947V43.8062H116.761ZM145.99 53.903C145.341 55.9355 143.721 57.3971 141.175 58.247C140.137 58.5936 139.025 58.7693 137.87 58.7693H122.13C120.975 58.7693 119.863 58.5936 118.825 58.247C113.837 56.582 113.629 52.9041 113.723 51.5955H117.537V51.7964C117.537 53.0795 118.581 54.1234 119.864 54.1234C121.148 54.1234 122.191 53.0796 122.191 51.7964V51.5955H146.274C146.307 52.0959 146.295 52.948 145.99 53.903ZM148.828 47.8723V48.3884C148.828 49.5108 147.915 50.424 146.793 50.424H122.191V49.0765C123.05 48.9395 123.567 48.5321 124.032 48.164C124.531 47.7683 124.926 47.4558 125.776 47.4558C126.626 47.4558 127.02 47.7683 127.52 48.164C128.06 48.5923 128.733 49.1255 129.991 49.1255C131.249 49.1255 131.894 48.6147 132.463 48.164C132.962 47.7683 133.357 47.4558 134.207 47.4558C135.057 47.4558 135.451 47.7683 135.951 48.164C136.52 48.6146 137.165 49.1255 138.422 49.1255C139.68 49.1255 140.325 48.6147 140.894 48.164C141.394 47.7683 141.788 47.4558 142.638 47.4558C143.279 47.4558 143.648 47.686 143.95 47.9349C144.597 48.4664 145.468 48.5751 146.223 48.2183C146.974 47.8636 147.44 47.1266 147.44 46.2951V45.9429C148.246 46.2139 148.828 46.9761 148.828 47.8723ZM146.793 40.1298H113.207C112.085 40.1298 111.171 39.2166 111.171 38.0942V37.5781C111.171 36.4557 112.085 35.5425 113.207 35.5425H146.793C147.915 35.5425 148.828 36.4557 148.828 37.5781V38.0942C148.828 39.2166 147.915 40.1298 146.793 40.1298Z" fill="white"/>
</g>
<g filter="url(#filter2_d_2515_3142)">
<path d="M220.545 23.3638C220.264 23.0835 219.81 23.0832 219.529 23.3638L212.082 30.8111C211.801 31.0917 211.801 31.5463 212.081 31.827C212.222 31.9672 212.406 32.0373 212.589 32.0373C212.773 32.0373 212.957 31.9672 213.097 31.827L220.545 24.3796C220.825 24.099 220.825 23.6442 220.545 23.3638Z" fill="white"/>
<path d="M222.57 25.3571C222.29 25.0767 221.835 25.0767 221.554 25.3571L214.107 32.8046C213.826 33.0852 213.826 33.5399 214.107 33.8204C214.247 33.9607 214.431 34.0308 214.615 34.0308C214.798 34.0308 214.982 33.9607 215.123 33.8204L222.57 26.3729C222.851 26.0923 222.851 25.6376 222.57 25.3571Z" fill="white"/>
<path d="M215.544 37.9334L224.789 28.6883C225.07 28.4077 225.07 27.953 224.789 27.6724C224.509 27.3921 224.054 27.3919 223.774 27.6724L214.529 36.9176C213.39 38.0565 211.648 38.3553 210.195 37.6614C209.906 37.5234 209.561 37.5932 209.348 37.8327L206.207 41.372C206.206 41.3734 206.204 41.3745 206.203 41.3759C206.202 41.3773 206.201 41.3788 206.2 41.3802L192.622 56.6769C192.619 56.6808 192.615 56.6848 192.612 56.6887C192.567 56.7413 192.525 56.7875 192.482 56.8304C191.586 57.7268 190.127 57.7267 189.231 56.8304C188.797 56.3962 188.558 55.8188 188.558 55.2048C188.558 54.5907 188.797 54.0134 189.232 53.5784C189.274 53.5364 189.32 53.4943 189.373 53.4491C189.377 53.4458 189.381 53.4423 189.385 53.4389L197.873 45.905C198.169 45.6416 198.196 45.1877 197.933 44.891C197.67 44.5942 197.216 44.5671 196.919 44.8306L188.437 52.3595C188.355 52.4287 188.283 52.4956 188.215 52.5634C187.51 53.2689 187.121 54.207 187.121 55.2048C187.121 56.2025 187.51 57.1406 188.215 57.8462C188.944 58.5744 189.9 58.9385 190.857 58.9384C191.813 58.9384 192.77 58.5745 193.498 57.8466C193.567 57.7777 193.633 57.7051 193.702 57.6248L204.048 45.968L214.395 57.6249C214.463 57.7053 214.53 57.778 214.598 57.8463C215.327 58.5745 216.283 58.9386 217.24 58.9386C218.196 58.9386 219.153 58.5745 219.881 57.8462C221.338 56.3898 221.338 54.0201 219.882 52.564C219.813 52.495 219.74 52.4282 219.66 52.3597L207.754 41.7925L210.084 39.1681C211.971 39.8368 214.106 39.371 215.544 37.9334ZM218.712 53.439C218.716 53.4424 218.72 53.4459 218.724 53.4492C218.776 53.494 218.823 53.5362 218.865 53.5791C219.762 54.4755 219.762 55.934 218.865 56.8302C217.969 57.7266 216.51 57.7266 215.614 56.8298C215.571 56.7874 215.529 56.7412 215.484 56.6886C215.481 56.6846 215.477 56.6806 215.474 56.6767L205.009 44.8859L206.801 42.8668L218.712 53.439Z" fill="white"/>
<path d="M218.389 21.2717C218.108 20.9913 217.654 20.9913 217.373 21.2717L208.128 30.5169C206.69 31.9547 206.225 34.09 206.893 35.9776L204.048 38.5028L201.314 36.0759C202.728 33.2937 202.212 29.9157 199.969 27.6723C197.741 25.4444 195.16 23.8765 192.702 23.2576C190.136 22.6118 187.936 23.0429 186.507 24.4721C185.078 25.9012 184.647 28.1014 185.293 30.6671C185.912 33.1248 187.479 35.7054 189.708 37.9333C191.951 40.1768 195.329 40.6929 198.111 39.2789C198.111 39.2789 200.785 42.2912 200.819 42.3295C200.961 42.4894 201.158 42.5709 201.356 42.5709C201.526 42.5709 201.696 42.5112 201.833 42.3898L208.229 36.7129C208.468 36.5004 208.538 36.1551 208.4 35.8661C207.706 34.4129 208.005 32.6715 209.144 31.5327L218.389 22.2876C218.67 22.0069 218.67 21.5522 218.389 21.2717ZM201.416 40.8388L198.802 37.893C198.57 37.6322 198.184 37.5751 197.888 37.7585C195.585 39.1786 192.639 38.833 190.723 36.9176C188.676 34.8705 187.242 32.5262 186.686 30.3163C186.168 28.2603 186.465 26.5454 187.523 25.4879C188.58 24.4303 190.295 24.1331 192.351 24.6508C194.561 25.2072 196.906 26.6409 198.953 28.6881C200.868 30.6033 201.214 33.5494 199.793 35.8524C199.61 36.1494 199.667 36.535 199.928 36.7666L202.966 39.4632L201.416 40.8388Z" fill="white"/>
</g>
<g filter="url(#filter3_d_2515_3142)">
<path d="M268.9 58.2422C268.9 59.2115 269.689 60 270.658 60H288.308C289.277 60 290.066 59.2115 290.066 58.2422L290.065 52.8789C290.065 52.5553 289.803 52.293 289.48 52.293C289.156 52.293 288.894 52.5553 288.894 52.8789V55.9615H270.072V45.4416C270.797 45.4406 271.484 45.1568 272.012 44.6385C272.562 44.0987 272.878 43.3496 272.878 42.5833V36.3693C273.894 36.3512 274.435 35.8751 274.871 35.4909C275.259 35.1504 275.538 34.9043 276.15 34.9043C276.275 34.9043 276.388 34.9159 276.495 34.9367C277.433 37.1634 279.098 39.0106 281.192 40.1799V51.0952C281.192 52.0502 281.969 52.8272 282.924 52.8272H282.977C283.932 52.8272 284.709 52.0502 284.709 51.0952V41.403C285.268 41.493 285.842 41.5405 286.426 41.5405C287.275 41.5405 288.101 41.4415 288.894 41.2551V50.3253C288.894 50.6489 289.156 50.9113 289.479 50.9113C289.803 50.9113 290.065 50.6489 290.065 50.3253V40.9072C294.219 39.4116 297.197 35.4324 297.197 30.7702C297.197 29.1132 296.83 27.5235 296.108 26.0454C295.965 25.7548 295.614 25.6341 295.324 25.7764C295.033 25.9185 294.913 26.2695 295.055 26.5602C295.699 27.8766 296.025 29.293 296.025 30.7702C296.025 36.0628 291.719 40.3686 286.427 40.3686C281.134 40.3686 276.828 36.0628 276.828 30.7702C276.828 25.4777 281.134 21.1719 286.427 21.1719C289.24 21.1719 291.903 22.4007 293.731 24.5433C293.941 24.7894 294.311 24.8187 294.557 24.6086C294.803 24.3985 294.833 24.0287 294.623 23.7825C292.571 21.3787 289.584 20 286.427 20C282.945 20 279.845 21.6605 277.875 24.2307C277.527 24.1602 277.14 24.1216 276.659 24.1088C273.544 24.0274 271.951 25.7911 271.462 27.5633C270.124 27.6765 268.883 28.2642 267.942 29.2362C266.933 30.2787 266.377 31.652 266.377 33.1033C266.377 34.1771 266.682 35.2146 267.26 36.111V38.6449C264.72 39.0375 262.803 41.2266 262.803 43.855V45.5604C262.803 45.884 263.065 46.1463 263.389 46.1463C263.712 46.1463 263.975 45.884 263.975 45.5604V43.855C263.975 41.8734 265.375 40.2126 267.26 39.8345V41.4205C266.042 41.7852 265.176 42.9112 265.176 44.2263V49.4099C265.176 51.0254 266.491 52.3396 268.106 52.3396H268.9V53.8827H268.076C265.815 53.8827 263.975 52.0428 263.975 49.7812V48.114C263.975 47.7904 263.712 47.528 263.389 47.528C263.065 47.528 262.803 47.7904 262.803 48.114V49.7812C262.803 52.689 265.168 55.0546 268.076 55.0546H268.9L268.9 58.2422ZM268.106 51.1677C267.137 51.1677 266.348 50.3791 266.348 49.4098V44.2262C266.348 43.5648 266.714 42.984 267.262 42.6842C267.282 43.7852 267.95 44.7426 268.9 45.1832V51.1676H268.106V51.1677ZM288.308 58.8281H270.658C270.335 58.8281 270.072 58.5653 270.072 58.2422V57.1334H288.894V58.2422C288.894 58.5653 288.631 58.8281 288.308 58.8281ZM274.097 34.611C273.71 34.952 273.43 35.197 272.812 35.1979C272.517 35.1979 272.24 35.3129 272.031 35.5217C271.821 35.7309 271.706 36.0085 271.706 36.3035V42.5832C271.706 43.0369 271.518 43.481 271.191 43.8018C270.875 44.1116 270.467 44.2781 270.037 44.2695C269.152 44.2523 268.432 43.5182 268.432 42.6331V36.0002C268.432 35.84 268.384 35.6846 268.294 35.5505C267.807 34.8269 267.549 33.9806 267.549 33.1032C267.549 30.7258 269.409 28.7994 271.783 28.7177C272.152 28.7049 272.464 28.4435 272.541 28.082C273.112 25.3973 275.813 25.2584 276.628 25.2802C276.818 25.2853 276.99 25.2947 277.147 25.309C276.2 26.9113 275.656 28.7783 275.656 30.7702C275.656 31.798 275.801 32.7925 276.071 33.7346C275.069 33.7586 274.531 34.2296 274.097 34.611ZM283.537 51.0951C283.537 51.404 283.286 51.6552 282.977 51.6552H282.924C282.615 51.6552 282.364 51.404 282.364 51.0951V40.7441C282.745 40.8998 283.136 41.0345 283.537 41.1462V51.0951Z" fill="white"/>
<path d="M275.986 38.0386C275.031 38.0386 274.254 38.8155 274.254 39.7705V51.0951C274.254 52.0501 275.031 52.8271 275.986 52.8271H276.039C276.994 52.8271 277.771 52.0501 277.771 51.0951V39.7705C277.771 38.8155 276.994 38.0386 276.039 38.0386H275.986ZM276.599 39.7705V51.0951C276.599 51.404 276.348 51.6552 276.039 51.6552H275.986C275.677 51.6552 275.426 51.404 275.426 51.0951V39.7705C275.426 39.4617 275.677 39.2104 275.986 39.2104H276.039C276.348 39.2104 276.599 39.4617 276.599 39.7705Z" fill="white"/>
<path d="M286.411 23.0474C282.155 23.0474 278.692 26.5099 278.692 30.7658C278.692 35.0217 282.155 38.4842 286.411 38.4842C290.667 38.4842 294.129 35.0217 294.129 30.7658C294.129 26.5099 290.667 23.0474 286.411 23.0474ZM286.411 37.3124C282.801 37.3124 279.864 34.3756 279.864 30.7658C279.864 27.156 282.801 24.2192 286.411 24.2192C290.021 24.2192 292.957 27.156 292.957 30.7658C292.957 34.3756 290.021 37.3124 286.411 37.3124Z" fill="white"/>
<path d="M289.186 30.1857H286.997V26.4338C286.997 26.1102 286.734 25.8479 286.411 25.8479C286.087 25.8479 285.825 26.1102 285.825 26.4338V30.7717C285.825 31.0952 286.087 31.3576 286.411 31.3576H289.186C289.51 31.3576 289.772 31.0952 289.772 30.7717C289.772 30.4481 289.51 30.1857 289.186 30.1857Z" fill="white"/>
</g>
<defs>
<filter id="filter0_d_2515_3142" x="22.4722" y="0" width="65.0562" height="80" filterUnits="userSpaceOnUse" color-interpolation-filters="sRGB">
<feFlood flood-opacity="0" result="BackgroundImageFix"/>
<feColorMatrix in="SourceAlpha" type="matrix" values="0 0 0 0 0 0 0 0 0 0 0 0 0 0 0 0 0 0 127 0" result="hardAlpha"/>
<feOffset/>
<feGaussianBlur stdDeviation="10"/>
<feComposite in2="hardAlpha" operator="out"/>
<feColorMatrix type="matrix" values="0 0 0 0 1 0 0 0 0 1 0 0 0 0 1 0 0 0 0.5 0"/>
<feBlend mode="normal" in2="BackgroundImageFix" result="effect1_dropShadow_2515_3142"/>
<feBlend mode="normal" in="SourceGraphic" in2="effect1_dropShadow_2515_3142" result="shape"/>
</filter>
<filter id="filter1_d_2515_3142" x="90" y="0" width="80" height="80" filterUnits="userSpaceOnUse" color-interpolation-filters="sRGB">
<feFlood flood-opacity="0" result="BackgroundImageFix"/>
<feColorMatrix in="SourceAlpha" type="matrix" values="0 0 0 0 0 0 0 0 0 0 0 0 0 0 0 0 0 0 127 0" result="hardAlpha"/>
<feOffset/>
<feGaussianBlur stdDeviation="10"/>
<feComposite in2="hardAlpha" operator="out"/>
<feColorMatrix type="matrix" values="0 0 0 0 1 0 0 0 0 1 0 0 0 0 1 0 0 0 0.5 0"/>
<feBlend mode="normal" in2="BackgroundImageFix" result="effect1_dropShadow_2515_3142"/>
<feBlend mode="normal" in="SourceGraphic" in2="effect1_dropShadow_2515_3142" result="shape"/>
</filter>
<filter id="filter2_d_2515_3142" x="165" y="0" width="80" height="80" filterUnits="userSpaceOnUse" color-interpolation-filters="sRGB">
<feFlood flood-opacity="0" result="BackgroundImageFix"/>
<feColorMatrix in="SourceAlpha" type="matrix" values="0 0 0 0 0 0 0 0 0 0 0 0 0 0 0 0 0 0 127 0" result="hardAlpha"/>
<feOffset/>
<feGaussianBlur stdDeviation="10"/>
<feComposite in2="hardAlpha" operator="out"/>
<feColorMatrix type="matrix" values="0 0 0 0 1 0 0 0 0 1 0 0 0 0 1 0 0 0 0.5 0"/>
<feBlend mode="normal" in2="BackgroundImageFix" result="effect1_dropShadow_2515_3142"/>
<feBlend mode="normal" in="SourceGraphic" in2="effect1_dropShadow_2515_3142" result="shape"/>
</filter>
<filter id="filter3_d_2515_3142" x="242.803" y="0" width="74.394" height="80" filterUnits="userSpaceOnUse" color-interpolation-filters="sRGB">
<feFlood flood-opacity="0" result="BackgroundImageFix"/>
<feColorMatrix in="SourceAlpha" type="matrix" values="0 0 0 0 0 0 0 0 0 0 0 0 0 0 0 0 0 0 127 0" result="hardAlpha"/>
<feOffset/>
<feGaussianBlur stdDeviation="10"/>
<feComposite in2="hardAlpha" operator="out"/>
<feColorMatrix type="matrix" values="0 0 0 0 1 0 0 0 0 1 0 0 0 0 1 0 0 0 0.5 0"/>
<feBlend mode="normal" in2="BackgroundImageFix" result="effect1_dropShadow_2515_3142"/>
<feBlend mode="normal" in="SourceGraphic" in2="effect1_dropShadow_2515_3142" result="shape"/>
</filter>
</defs>
</svg>
