<svg width="42" height="33" viewBox="0 0 42 33" fill="none" xmlns="http://www.w3.org/2000/svg">
<path d="M40.5072 0H35.9001C35.5675 0 35.2979 0.26954 35.2979 0.60219C35.2979 0.93484 35.5675 1.20438 35.9001 1.20438H39.905V11.3588L39.9001 12.5256C39.8806 17.4779 37.9924 22.1817 34.5836 25.7707C34.3544 26.0118 34.3644 26.3929 34.6054 26.622C34.7219 26.7327 34.8711 26.7877 35.02 26.7877C35.1793 26.7877 35.3384 26.7249 35.4567 26.6002C39.078 22.7877 41.0837 17.7909 41.1044 12.5306L41.1094 11.3613V0.60219C41.1094 0.26954 40.8398 0 40.5072 0Z" fill="#E00000"/>
<path d="M0.60219 2.96004C0.934839 2.96004 1.20438 2.6905 1.20438 2.35785V1.20438H13.1077V7.98905C13.1077 8.3217 13.3772 8.59124 13.7099 8.59124H28.042C28.3746 8.59124 28.6442 8.3217 28.6442 7.98905V1.20438H33.331C33.6636 1.20438 33.9332 0.93484 33.9332 0.60219C33.9332 0.26954 33.6636 0 33.331 0H0.60219C0.26954 0 0 0.26954 0 0.60219V2.35785C0 2.6905 0.26954 2.96004 0.60219 2.96004ZM27.4398 1.20438V7.38686H14.312V1.20438H27.4398Z" fill="#E00000"/>
<path d="M32.7564 27.463C29.3231 30.257 24.9898 31.7957 20.5547 31.7957C15.4017 31.7957 10.5532 29.7929 6.90222 26.1562C3.25134 22.5195 1.22959 17.6787 1.20928 12.5255L1.20438 11.3614V4.92348C1.20438 4.59083 0.93484 4.32129 0.60219 4.32129C0.26954 4.32129 0 4.59083 0 4.92348V11.3639L0.00489781 12.5303C0.0264964 18.0042 2.17415 23.1464 6.05225 27.0094C9.93051 30.8726 15.0808 33.0001 20.5547 33.0001C25.266 33.0001 29.8692 31.3654 33.5167 28.3972C33.7746 28.1874 33.8135 27.808 33.6036 27.55C33.3938 27.2922 33.0145 27.2531 32.7564 27.463Z" fill="#E00000"/>
<path d="M18.6852 19.3878C18.3525 19.3878 18.083 19.6574 18.083 19.99V26.836C18.083 27.1687 18.3525 27.4382 18.6852 27.4382H23.0666C23.3992 27.4382 23.6688 27.1687 23.6688 26.836V19.99C23.6688 19.6574 23.3992 19.3878 23.0666 19.3878H18.6852ZM22.4644 26.2338H19.2874V20.5921H22.4644V26.2338Z" fill="#E00000"/>
<path d="M13.7131 14.9116L12.0344 10.8646C11.907 10.5575 11.5546 10.4115 11.2474 10.5391L4.92381 13.1621C4.61677 13.2896 4.47096 13.6419 4.5983 13.9492L6.27705 17.9962C6.40399 18.3021 6.75567 18.4496 7.06407 18.3217L13.3876 15.6986C13.6947 15.5711 13.8405 15.2188 13.7131 14.9116ZM7.15881 16.9784L5.94159 14.0438L11.1526 11.8823L12.3698 14.8169L7.15881 16.9784Z" fill="#E00000"/>
<path d="M9.30898 22.4272L12.7695 25.1146C13.0329 25.3189 13.4109 25.2704 13.6145 25.0083L17.8134 19.6012C18.0174 19.3385 17.9698 18.9603 17.7072 18.7562L14.2467 16.0689C13.9845 15.8655 13.6062 15.912 13.4017 16.1752L9.20276 21.5823C8.99881 21.8449 9.04635 22.2232 9.30898 22.4272ZM13.9836 17.3894L16.4929 19.3381L13.0326 23.794L10.5233 21.8453L13.9836 17.3894Z" fill="#E00000"/>
<path d="M35.4743 17.9963L37.1531 13.9492C37.2803 13.6421 37.1348 13.2898 36.8276 13.1622L30.504 10.5392C30.1966 10.4117 29.8444 10.5575 29.717 10.8647L28.0382 14.9117C27.911 15.2188 28.0565 15.5711 28.3637 15.6987L34.6873 18.3218C34.9939 18.4487 35.3466 18.3042 35.4743 17.9963ZM29.3816 14.8169L30.5988 11.8824L35.8099 14.0439L34.5926 16.9785L29.3816 14.8169Z" fill="#E00000"/>
<path d="M28.1371 25.0083C28.3408 25.2704 28.7187 25.3188 28.982 25.1146L32.4426 22.4272C32.7052 22.2232 32.7527 21.8449 32.5488 21.5823L28.3498 16.1752C28.1455 15.9122 27.7672 15.8653 27.5048 16.0689L24.0443 18.7563C23.7817 18.9603 23.7342 19.3385 23.9381 19.6012L28.1371 25.0083ZM27.768 17.3894L31.2282 21.8453L28.7189 23.794L25.2587 19.3381L27.768 17.3894Z" fill="#E00000"/>
<path d="M27.0988 10.8394C27.0988 10.5067 26.8292 10.2372 26.4966 10.2372C26.1639 10.2372 25.8944 10.5067 25.8944 10.8394C25.8944 13.6286 23.6252 15.8978 20.836 15.8978C18.0468 15.8978 15.7776 13.6286 15.7776 10.8394C15.7776 10.5067 15.5081 10.2372 15.1754 10.2372C14.8428 10.2372 14.5732 10.5067 14.5732 10.8394C14.5732 14.2927 17.3827 17.1021 20.836 17.1021C24.2894 17.1021 27.0988 14.2927 27.0988 10.8394Z" fill="#E00000"/>
<path d="M17.9453 6.70436C18.4975 6.70436 19.0059 6.51061 19.4091 6.1872C19.8216 6.518 20.3359 6.70436 20.876 6.70436C21.4154 6.70436 21.929 6.51848 22.3413 6.18832C22.7536 6.5184 23.2673 6.70436 23.8067 6.70436C25.1128 6.70436 26.1753 5.62379 26.1753 4.2956C26.1753 2.96741 25.1128 1.88684 23.8067 1.88684C23.2672 1.88684 22.7536 2.07272 22.3413 2.4028C21.929 2.07272 21.4155 1.88684 20.876 1.88684C20.3359 1.88684 19.8216 2.0732 19.4091 2.404C19.0059 2.08059 18.4975 1.88684 17.9453 1.88684C16.6392 1.88684 15.5767 2.96741 15.5767 4.2956C15.5767 5.62379 16.6392 6.70436 17.9453 6.70436ZM24.9709 4.2956C24.9709 4.9597 24.4486 5.49998 23.8067 5.49998C23.5313 5.49998 23.2691 5.39889 23.0622 5.22113C23.1814 4.92983 23.2446 4.61677 23.2446 4.2956C23.2446 3.97451 23.1814 3.66137 23.0622 3.37007C23.2691 3.19231 23.5313 3.09122 23.8067 3.09122C24.4486 3.09122 24.9709 3.63151 24.9709 4.2956ZM22.0402 4.2956C22.0402 4.96307 21.5183 5.49998 20.876 5.49998C20.6008 5.49998 20.3386 5.39897 20.1317 5.22129C20.2489 4.93609 20.3139 4.62351 20.3139 4.2956C20.3139 3.96769 20.2489 3.65511 20.1317 3.36991C20.3386 3.19223 20.6008 3.09122 20.876 3.09122C21.5173 3.09122 22.0402 3.62717 22.0402 4.2956ZM17.9453 3.09122C18.5872 3.09122 19.1095 3.63151 19.1095 4.2956C19.1095 4.9597 18.5872 5.49998 17.9453 5.49998C17.3033 5.49998 16.781 4.9597 16.781 4.2956C16.781 3.63151 17.3033 3.09122 17.9453 3.09122Z" fill="#E00000"/>
</svg>
