<svg width="383" height="428" viewBox="0 0 383 428" fill="none" xmlns="http://www.w3.org/2000/svg">
<g filter="url(#filter0_d_4512_2831)">
<g filter="url(#filter1_d_4512_2831)">
<path d="M133.016 123.688C132.925 119.223 136.47 115.53 140.934 115.439L237.938 113.455C242.402 113.364 246.096 116.909 246.187 121.373L249.113 264.454C249.205 268.918 245.659 272.611 241.195 272.703L144.191 274.687C139.727 274.778 136.034 271.233 135.942 266.768L133.016 123.688Z" fill="white"/>
</g>
<g filter="url(#filter2_d_4512_2831)">
<path fill-rule="evenodd" clip-rule="evenodd" d="M237.946 113.859L140.942 115.843C136.701 115.93 133.333 119.438 133.42 123.68L136.346 266.76C136.433 271.001 139.942 274.369 144.183 274.282L241.187 272.298C245.428 272.212 248.796 268.703 248.709 264.462L245.783 121.382C245.696 117.14 242.187 113.772 237.946 113.859ZM140.934 115.439C136.47 115.53 132.925 119.223 133.016 123.688L135.942 266.768C136.034 271.233 139.727 274.778 144.191 274.687L241.195 272.703C245.659 272.611 249.205 268.918 249.113 264.454L246.187 121.373C246.096 116.909 242.402 113.364 237.938 113.455L140.934 115.439Z" fill="white"/>
</g>
<path d="M167.971 142.843C168.015 144.991 167.706 146.866 167.043 148.47C166.381 150.063 165.444 151.351 164.232 152.334L168.114 155.255L165.153 157.985L160.178 154.154C159.622 154.26 159.045 154.319 158.445 154.332C156.539 154.371 154.83 153.947 153.317 153.062C151.803 152.177 150.619 150.896 149.763 149.218C148.907 147.53 148.452 145.58 148.396 143.37L148.373 142.233C148.326 139.97 148.691 137.973 149.466 136.24C150.252 134.497 151.378 133.153 152.843 132.207C154.319 131.25 156.014 130.752 157.93 130.713C159.846 130.674 161.555 131.102 163.058 131.998C164.571 132.883 165.751 134.18 166.597 135.89C167.453 137.589 167.904 139.565 167.95 141.817L167.971 142.843ZM163.15 141.9C163.101 139.489 162.632 137.667 161.743 136.432C160.854 135.197 159.61 134.596 158.01 134.628C156.421 134.661 155.207 135.307 154.369 136.567C153.531 137.816 153.132 139.635 153.17 142.025L153.193 143.146C153.241 145.493 153.71 147.305 154.599 148.582C155.489 149.859 156.744 150.481 158.365 150.448C159.954 150.415 161.163 149.769 161.99 148.51C162.817 147.24 163.211 145.41 163.173 143.02L163.15 141.9Z" fill="#181818"/>
<path fill-rule="evenodd" clip-rule="evenodd" d="M165.166 178.139C164.479 178.153 163.828 178.316 163.236 178.599C163.779 177.702 164.086 176.624 164.062 175.468C164 172.434 161.69 170.021 158.903 170.078C156.117 170.135 153.908 172.64 153.97 175.674C153.992 176.775 154.312 177.793 154.841 178.641C154.328 178.464 153.781 178.371 153.213 178.383C150.427 178.44 148.218 180.945 148.28 183.979C148.342 187.012 150.651 189.425 153.438 189.368C154.068 189.355 154.667 189.216 155.218 188.976C155.218 188.977 157.552 188.239 159.033 185.149L159.071 186.99C159.071 186.99 158.398 192.811 152.831 193.561L151.94 193.579L151.959 194.484L167.157 194.173L167.138 193.268L166.248 193.287C160.654 192.765 159.744 186.977 159.744 186.977L159.709 185.259C160.01 185.942 161.669 189.28 165.24 189.123C165.29 189.123 165.34 189.125 165.39 189.124C168.177 189.067 170.386 186.561 170.324 183.528C170.262 180.495 167.953 178.082 165.166 178.139Z" fill="#181818"/>
</g>
<defs>
<filter id="filter0_d_4512_2831" x="129.014" y="113.453" width="124.101" height="169.235" filterUnits="userSpaceOnUse" color-interpolation-filters="sRGB">
<feFlood flood-opacity="0" result="BackgroundImageFix"/>
<feColorMatrix in="SourceAlpha" type="matrix" values="0 0 0 0 0 0 0 0 0 0 0 0 0 0 0 0 0 0 127 0" result="hardAlpha"/>
<feOffset dy="4"/>
<feGaussianBlur stdDeviation="2"/>
<feComposite in2="hardAlpha" operator="out"/>
<feColorMatrix type="matrix" values="0 0 0 0 0 0 0 0 0 0 0 0 0 0 0 0 0 0 0.25 0"/>
<feBlend mode="normal" in2="BackgroundImageFix" result="effect1_dropShadow_4512_2831"/>
<feBlend mode="normal" in="SourceGraphic" in2="effect1_dropShadow_4512_2831" result="shape"/>
</filter>
<filter id="filter1_d_4512_2831" x="0.000152588" y="0" width="382.129" height="427.263" filterUnits="userSpaceOnUse" color-interpolation-filters="sRGB">
<feFlood flood-opacity="0" result="BackgroundImageFix"/>
<feColorMatrix in="SourceAlpha" type="matrix" values="0 0 0 0 0 0 0 0 0 0 0 0 0 0 0 0 0 0 127 0" result="hardAlpha"/>
<feOffset dy="19.5609"/>
<feGaussianBlur stdDeviation="66.507"/>
<feColorMatrix type="matrix" values="0 0 0 0 0 0 0 0 0 0 0 0 0 0 0 0 0 0 0.1 0"/>
<feBlend mode="normal" in2="BackgroundImageFix" result="effect1_dropShadow_4512_2831"/>
<feBlend mode="normal" in="SourceGraphic" in2="effect1_dropShadow_4512_2831" result="shape"/>
</filter>
<filter id="filter2_d_4512_2831" x="0.000152588" y="0" width="382.129" height="427.263" filterUnits="userSpaceOnUse" color-interpolation-filters="sRGB">
<feFlood flood-opacity="0" result="BackgroundImageFix"/>
<feColorMatrix in="SourceAlpha" type="matrix" values="0 0 0 0 0 0 0 0 0 0 0 0 0 0 0 0 0 0 127 0" result="hardAlpha"/>
<feOffset dy="19.5609"/>
<feGaussianBlur stdDeviation="66.507"/>
<feColorMatrix type="matrix" values="0 0 0 0 0 0 0 0 0 0 0 0 0 0 0 0 0 0 0.1 0"/>
<feBlend mode="normal" in2="BackgroundImageFix" result="effect1_dropShadow_4512_2831"/>
<feBlend mode="normal" in="SourceGraphic" in2="effect1_dropShadow_4512_2831" result="shape"/>
</filter>
</defs>
</svg>
